HIERARCHY
ROOT Hips
{
	OFFSET -3.958830 18.904000 13.208200
	CHANNELS 6 Xposition Yposition Zposition Zrotation Yrotation Xrotation 
	JOINT LHipJoint
	{
		OFFSET 0.000000 0.000000 0.000000
		CHANNELS 3 Zrotation Yrotation Xrotation
		JOINT LeftUpLeg
		{
			OFFSET 1.800000 -1.400000 0.085000
			CHANNELS 3 Zrotation Yrotation Xrotation
			JOINT LeftLeg
			{
				OFFSET 2.215000 -6.000000 0.000000
				CHANNELS 3 Zrotation Yrotation Xrotation
				JOINT LeftFoot
				{
					OFFSET 2.500000 -6.900000 0.000000
					CHANNELS 3 Zrotation Yrotation Xrotation
					JOINT LeftToeBase
					{
						OFFSET 0.200000 -0.500000 1.950000
						CHANNELS 3 Zrotation Yrotation Xrotation
						End Site
						{
							OFFSET 0.000000 0.000000 0.000000
						}
					}
				}
			}
		}
	}
	JOINT RHipJoint
	{
		OFFSET 0.000000 0.000000 0.000000
		CHANNELS 3 Zrotation Yrotation Xrotation
		JOINT RightUpLeg
		{
			OFFSET -1.800000 -1.400000 0.085000
			CHANNELS 3 Zrotation Yrotation Xrotation
			JOINT RightLeg
			{
				OFFSET -2.215000 -6.000000 0.000000
				CHANNELS 3 Zrotation Yrotation Xrotation
				JOINT RightFoot
				{
					OFFSET -2.500000 -6.900000 0.000000
					CHANNELS 3 Zrotation Yrotation Xrotation
					JOINT RightToeBase
					{
						OFFSET -0.200000 -0.500000 1.950000
						CHANNELS 3 Zrotation Yrotation Xrotation
						End Site
						{
							OFFSET 0.000000 0.000000 0.000000
						}
					}
				}
			}
		}
	}
	JOINT LowerBack
	{
		OFFSET 0.000000 0.000000 0.000000
		CHANNELS 3 Zrotation Yrotation Xrotation
		JOINT Spine
		{
			OFFSET -0.087000 1.940000 -0.288900
			CHANNELS 3 Zrotation Yrotation Xrotation
			JOINT Spine1
			{
				OFFSET 0.000000 1.950000 0.060000
				CHANNELS 3 Zrotation Yrotation Xrotation
				JOINT Neck
				{
					OFFSET 0.000000 0.000000 0.000000
					CHANNELS 3 Zrotation Yrotation Xrotation
					JOINT Neck1
					{
						OFFSET 0.000000 1.600000 0.340000
						CHANNELS 3 Zrotation Yrotation Xrotation
						JOINT Head
						{
							OFFSET 0.000000 1.667000 -0.240000
							CHANNELS 3 Zrotation Yrotation Xrotation
							End Site
							{
								OFFSET 0.000000 0.000000 0.000000
							}
						}
					}
				}
				JOINT LeftShoulder
				{
					OFFSET 0.000000 0.000000 0.000000
					CHANNELS 3 Zrotation Yrotation Xrotation
					JOINT LeftArm
					{
						OFFSET 2.700000 1.550000 -0.730000
						CHANNELS 3 Zrotation Yrotation Xrotation
						JOINT LeftForeArm
						{
							OFFSET 5.450000 0.000000 0.000000
							CHANNELS 3 Zrotation Yrotation Xrotation
							JOINT LeftHand
							{
								OFFSET 3.450000 0.000000 0.000000
								CHANNELS 3 Zrotation Yrotation Xrotation
								JOINT LeftHandIndex1
								{
									OFFSET 0.750000 0.000000 0.000000
									CHANNELS 3 Zrotation Yrotation Xrotation
									End Site
									{
										OFFSET 0.000000 0.000000 0.000000
									}
								}
							}
						}
					}
				}
				JOINT RightShoulder
				{
					OFFSET 0.000000 0.000000 0.000000
					CHANNELS 3 Zrotation Yrotation Xrotation
					JOINT RightArm
					{
						OFFSET -2.700000 1.550000 -0.730000
						CHANNELS 3 Zrotation Yrotation Xrotation
						JOINT RightForeArm
						{
							OFFSET -5.450000 0.000000 0.000000
							CHANNELS 3 Zrotation Yrotation Xrotation
							JOINT RightHand
							{
								OFFSET -3.450000 0.000000 0.000000
								CHANNELS 3 Zrotation Yrotation Xrotation
								JOINT RightHandIndex1
								{
									OFFSET -0.750000 0.000000 0.000000
									CHANNELS 3 Zrotation Yrotation Xrotation
									End Site
									{
										OFFSET 0.000000 0.000000 0.000000
									}
								}
							}
						}
					}
				}
			}
		}
	}
}
MOTION
Frames: 12
Frame Time: 0.016667
-1.102220 16.485370 -3.836720 -2.559168 -10.111711 -9.186297 -15.414185 11.222393 4.792663 34.381371 0.690843 -28.924024 -14.492654 21.072665 47.921922 0.577615 11.190084 0.124022 0.641360 0.623960 0.492850 18.525490 -7.910885 4.137943 -33.193826 8.064754 -32.781185 32.084213 -22.871140 40.918695 -1.897033 -9.148257 0.910967 0.117600 -0.511760 0.146580 -3.790723 -2.554598 -9.504663 27.575664 -11.835953 42.071585 -12.325898 0.006356 1.080361 8.378348 -7.245422 -15.705649 -21.963373 15.312186 71.267261 -2.603600 0.568320 -36.394700 -24.183546 -12.430222 5.492289 -55.753316 5.446827 -19.269786 -29.809137 -47.933780 5.319891 -2.807876 2.896483 1.171900 -0.683900 0.793130 -0.000280 7.432241 21.946059 9.731979 66.462610 10.687473 -23.429897 -16.937240 51.822450 -12.296628 2.009775 -0.746037 0.063820 0.323800 -0.020230 -0.165770 
-1.097270 16.511880 -3.821860 -2.354873 -9.910422 -9.782744 -15.388535 11.211187 4.807117 34.822761 0.821767 -27.691701 -15.937199 21.378287 46.518094 0.602474 11.169297 0.133831 0.668540 0.673490 0.504070 18.539620 -8.022995 4.035844 -32.886614 8.016984 -32.010748 30.976263 -22.552088 41.385938 -1.869664 -9.126977 0.914952 0.151320 -0.494940 0.142810 -3.844318 -2.423651 -9.457982 28.261149 -11.850750 40.748701 -11.546623 -0.394058 3.023391 7.920198 -7.189364 -15.960171 -21.412703 14.835725 70.694375 -1.834660 0.556870 -34.700240 -22.873847 -14.358740 6.309082 -55.270510 4.325238 -18.708555 -28.699309 -46.112576 4.393521 -2.837275 2.897323 1.126240 -0.657910 0.781960 0.011430 7.169842 23.606199 9.824471 64.747318 12.328159 -22.426642 -17.282194 49.937122 -12.236117 2.012794 -0.781236 0.079060 0.328040 -0.040000 -0.150950 
-1.088570 16.545960 -3.791330 -2.067191 -9.346654 -10.141105 -15.323839 11.151821 4.800615 35.002544 0.704180 -26.565841 -17.334022 21.467713 44.923706 0.612152 11.122402 0.174395 0.677460 0.684210 0.513650 18.585820 -8.207104 3.947929 -32.938794 7.519773 -31.114259 30.105363 -22.251139 41.287456 -1.824427 -9.090458 0.922799 0.172170 -0.455560 0.150400 -3.990771 -2.123479 -9.408804 29.497011 -11.855432 38.043709 -11.474896 -0.918219 5.517372 7.678628 -6.489269 -16.310016 -19.255163 13.108618 70.620769 -2.119020 0.300060 -31.672990 -21.954274 -17.281069 7.405951 -53.342433 3.120206 -17.708741 -27.365462 -43.979011 3.484648 -2.876585 2.896245 1.074710 -0.605720 0.755500 0.031720 6.828597 25.585592 10.138077 63.510767 13.798929 -21.666433 -18.473212 48.160444 -12.657242 1.998208 -0.831098 0.077980 0.331760 -0.057100 -0.141560 
-1.058870 16.617440 -3.758920 -1.822869 -8.921841 -10.825546 -15.230550 11.190289 4.683185 34.702187 0.433513 -24.597174 -18.453618 21.108493 42.968356 0.561269 10.928628 0.222266 0.713200 0.730640 0.532170 18.637692 -8.504484 3.781990 -32.433377 7.012324 -29.670121 28.406922 -21.481619 41.192575 -1.751674 -8.940373 0.938097 0.219810 -0.463260 0.152830 -4.181391 -1.799791 -9.232004 31.308600 -12.420448 35.748647 -11.961181 -1.985843 7.720201 7.473560 -6.562976 -15.885926 -19.315235 12.640884 68.141618 -2.453390 0.076080 -31.626480 -20.601297 -18.789829 7.690862 -51.100991 0.565776 -15.480185 -24.854142 -39.848928 2.275778 -2.905550 2.905246 1.041670 -0.590190 0.738740 0.031340 5.971010 26.205716 9.776155 62.337585 16.413414 -19.820609 -18.188098 46.056778 -12.148643 2.004032 -0.890515 0.085070 0.318180 -0.068340 -0.144430 
-1.021220 16.705780 -3.703320 -1.458609 -8.499651 -10.963870 -15.089081 11.214850 4.486107 33.790012 0.088385 -22.333986 -19.517877 20.363826 40.196958 0.528601 10.622586 0.365419 0.711670 0.726480 0.505100 18.726200 -8.927397 3.594144 -31.614674 6.279426 -28.629123 25.676331 -20.239145 41.023332 -1.607981 -8.696008 1.005436 0.247100 -0.385090 0.158020 -4.485890 -1.251687 -8.971080 33.611779 -12.775293 31.584741 -12.666540 -3.188267 10.627474 7.020012 -7.064444 -15.878992 -20.359721 12.450200 64.757300 -2.656010 -0.336790 -27.725100 -18.539326 -20.975529 8.586944 -49.391738 -1.619467 -13.335724 -21.670604 -36.068032 1.106085 -2.968225 2.921828 0.950860 -0.514890 0.666730 0.067590 5.006883 27.756266 9.734244 60.633728 18.922657 -17.227042 -17.470193 41.923686 -10.942877 2.020289 -1.000560 0.077080 0.316610 -0.078780 -0.116670 
-0.961760 16.798400 -3.642430 -0.931876 -8.302627 -10.777352 -14.958239 11.244150 4.269786 32.470412 -0.274254 -20.190711 -20.490641 19.517766 37.365801 0.483141 10.284081 0.516431 0.676040 0.696330 0.449650 18.808620 -9.343773 3.398479 -30.974666 5.386024 -27.780379 22.879251 -18.830999 40.318926 -1.436677 -8.376973 1.099867 0.253900 -0.298750 0.180140 -4.770207 -0.727910 -8.685936 35.795693 -12.769226 27.370135 -13.366833 -4.219142 12.960492 6.617266 -7.576126 -15.368257 -21.106299 12.027424 60.356305 -4.222400 -0.183940 -24.652070 -15.863944 -21.949697 9.005275 -48.591367 -4.688405 -10.302583 -17.479684 -31.252649 0.089362 -3.079565 2.924819 0.854200 -0.419600 0.588650 0.090280 3.269092 28.012926 9.347849 60.099708 21.593135 -14.258455 -16.595576 38.200586 -9.730467 2.036136 -1.097722 0.069600 0.303450 -0.060740 -0.089800 
-0.911690 16.906310 -3.598420 -0.713069 -7.511246 -10.590540 -14.845303 11.308413 4.057712 31.072291 -0.716219 -18.268485 -20.996502 18.265468 34.259818 0.440219 9.841489 0.732402 0.616150 0.650570 0.372580 18.871441 -9.794746 3.119880 -29.711725 4.220979 -26.572570 19.624061 -17.322578 39.578193 -1.248106 -8.008883 1.239389 0.250770 -0.165880 0.192660 -4.995567 -0.283654 -8.380902 37.382457 -12.257749 23.103496 -12.521402 -5.296123 15.688434 5.603066 -7.619678 -14.972797 -20.639551 10.728109 56.338686 -4.777120 -0.006160 -20.404960 -11.524393 -23.599568 9.775702 -49.638559 -9.173557 -6.459868 -10.325801 -25.855512 -1.030376 -3.220504 2.910514 0.722170 -0.292750 0.486040 0.127770 1.172011 28.471200 9.182167 59.005607 23.586216 -11.851409 -16.324515 35.309262 -8.980189 2.042200 -1.196380 0.054150 0.307730 -0.045920 -0.046050 
-0.856110 17.025220 -3.574370 -0.507546 -7.660925 -10.279160 -14.746915 11.366640 3.871306 29.806973 -0.906765 -16.269853 -21.412451 17.076146 31.101362 0.349500 9.409317 0.927163 0.582540 0.629780 0.316670 18.922489 -10.263019 2.816981 -27.759362 3.465970 -25.923920 15.520991 -15.264854 38.869461 -1.041957 -7.483972 1.421536 0.282350 -0.060620 0.200130 -5.194269 0.229526 -8.062734 38.808618 -11.375420 19.847568 -11.380698 -5.765747 18.103213 4.273964 -7.577823 -14.244412 -19.990401 9.207801 51.944902 -5.232800 0.235990 -17.586660 -6.439175 -24.806976 10.011226 -50.328334 -15.038356 -0.729368 -3.804986 -17.030206 -1.232506 -3.389760 2.909232 0.618970 -0.179740 0.390160 0.155430 -1.087461 28.456277 8.979450 58.135853 24.965307 -9.837540 -15.279901 33.510648 -8.218889 2.022076 -1.298364 0.021780 0.309320 -0.033870 -0.026960 
-0.802390 17.141340 -3.546080 -0.441623 -7.462969 -10.393590 -14.670817 11.520896 3.682989 28.606474 -1.082924 -14.311527 -20.902471 15.834778 28.657387 0.325169 8.977393 1.151366 0.528120 0.591630 0.267020 18.936184 -10.732928 2.499137 -25.728968 2.517717 -24.437232 11.922307 -13.325064 37.403476 -0.856186 -6.928762 1.646149 0.273900 0.059750 0.231150 -5.297605 0.581533 -7.775990 39.599780 -10.318815 17.230319 -9.123686 -6.299290 20.258691 2.773858 -6.762758 -13.765507 -17.641426 6.766604 48.928385 -6.498920 0.581580 -14.135820 -1.064883 -26.344090 10.335156 -49.267671 -20.168632 4.694442 -2.839509 -8.104726 -0.438831 -3.601793 2.925789 0.478980 -0.045070 0.306480 0.189960 -3.322253 28.502040 9.078882 56.767062 25.097920 -8.688486 -14.175942 32.882578 -7.688277 2.008782 -1.389509 0.021830 0.302780 -0.033550 0.014600 
-0.744320 17.246950 -3.505570 -0.068785 -6.510568 -10.405996 -14.610408 11.705931 3.505252 26.816670 -1.482881 -12.787792 -20.249338 14.589902 26.537475 0.278066 8.560338 1.361940 0.421950 0.470070 0.194740 18.932733 -11.151908 2.210742 -24.459920 1.114977 -22.556387 9.039642 -11.729415 34.918244 -0.666361 -6.424158 1.836396 0.223580 0.185160 0.293250 -5.348048 0.779980 -7.526153 39.224860 -9.302173 14.595178 -6.858999 -6.913547 21.554363 1.378055 -5.290150 -13.279206 -13.994647 4.278082 46.640024 -8.268030 1.420000 -10.061080 2.470153 -27.568556 10.196474 -45.963460 -24.566757 9.431203 -4.155320 3.331758 0.098422 -3.921209 2.940944 0.345520 0.109370 0.198220 0.184390 -4.039887 27.946849 9.054180 56.007812 24.893967 -7.381461 -13.193931 31.888912 -7.094112 2.003633 -1.478571 0.012640 0.248480 0.015040 0.034010 
-0.685610 17.314850 -3.469430 0.039214 -5.350670 -10.251447 -14.579882 11.843404 3.416937 25.560839 -1.668049 -11.884931 -19.887937 13.845936 24.994509 0.252739 8.316497 1.535908 0.255780 0.291960 0.060700 18.919456 -11.462514 1.966520 -23.145855 0.086584 -20.928222 6.423879 -10.470395 33.047904 -0.491510 -6.030224 2.041636 0.153240 0.350200 0.282890 -5.353376 0.919820 -7.346418 38.740950 -8.185857 12.783154 -3.672790 -7.168234 21.619181 -0.550692 -4.257873 -12.954085 -11.222821 2.451469 44.100108 -8.827160 1.899760 -6.435430 7.117626 -25.832558 9.796928 -43.720325 -26.573159 11.345069 -4.297943 3.917935 0.237203 -4.098680 2.863722 0.240380 0.245960 0.057970 0.181060 -4.816767 25.304554 8.406969 55.809523 24.799628 -5.673370 -11.461130 30.557760 -6.134972 2.021039 -1.485047 -0.059030 0.269740 0.094710 0.054940 
-0.628420 17.358820 -3.416140 -0.118891 -4.161889 -9.714097 -14.561675 11.981462 3.382447 24.555430 -1.859263 -11.776899 -19.346494 13.217880 24.003465 0.256213 8.072761 1.687232 0.127750 0.157810 -0.045110 18.896070 -11.695542 1.780080 -21.704967 -0.768198 -19.260766 4.370183 -9.368980 30.681534 -0.362157 -5.625685 2.267161 0.075560 0.469200 0.290070 -5.333919 0.973904 -7.226497 38.220772 -6.778287 11.125214 -0.684122 -6.988111 20.807592 -2.046368 -2.940624 -12.816020 -8.442653 0.896019 42.728969 -9.670130 2.656730 -3.402340 9.967140 -23.724104 9.251845 -38.081767 -27.655959 12.336603 -6.169756 1.600262 0.349401 -4.197039 2.771830 0.156450 0.351900 -0.030890 0.194460 -4.809006 22.048217 7.660304 56.309069 23.630438 -4.491621 -9.163990 29.616799 -5.168385 2.053221 -1.483743 -0.090070 0.266950 0.139850 0.082280 
